<?xml version="1.0" encoding="utf-8"?>
<!-- Generator: Adobe Illustrator 27.5.0, SVG Export Plug-In . SVG Version: 6.00 Build 0)  -->
<svg version="1.1" xmlns="http://www.w3.org/2000/svg" xmlns:xlink="http://www.w3.org/1999/xlink" x="0px" y="0px"
	 viewBox="0 0 750 500" style="enable-background:new 0 0 750 500;" xml:space="preserve">
<g id="BACKGROUND">
	<rect y="0.272" style="fill:#F3F5FF;" width="750" height="500"/>
</g>
<g id="OBJECTS">
	<g>
		<g>
			<path style="fill:#E3E7FF;" d="M184.83,66.333c0,0-92.437,11.116-110.437,112.066s52.095,56.199,87.381,94.529
				s28.642,137.381,79.459,97.758c50.817-39.623,99.98-44.071,147.126-7.774s70.946,46.384,119.794-0.764
				C557,315,604.428,287.883,636.714,294.942C669,302,685.444,236.073,659.222,185.036C633,134,609.988,142.963,625.792,122.316
				c15.803-20.647-14.98-81.895-83.519-68.649C473.734,66.912,390.667,117.795,343.667,99S265.226,45,184.83,66.333z"/>
			<g>
				<path style="fill:#A3B3E5;" d="M505.157,471.028h160.119c0,0,19.305-14.763,18.169-31.797
					c-1.136-17.034-34.068,3.407-28.39-6.814c5.678-10.22,17.034-6.814,21.576-27.254c4.542-20.441-38.61-7.949-14.763-27.254
					c23.847-19.305,40.881-30.661,32.932-44.288c-7.949-13.627-28.39,1.136-20.441-12.492s19.305-63.594-2.271-47.695
					c-21.576,15.898-17.034,55.644-21.576,42.017s-21.576-18.169-27.254-1.136c-5.678,17.034-9.085,69.271-14.763,51.102
					c-5.678-18.169-20.441-40.882-29.526-13.627c-9.085,27.254-10.22,55.644-14.763,40.882
					c-4.542-14.763-55.644-17.034-52.238,20.441C511.97,413.112,471.089,434.689,505.157,471.028z"/>
				<path style="fill:#F3F5FF;" d="M616.769,391.74l28.095-6.95l-0.218-0.88l-27.249,6.74c12.842-16.639,24.841-31.683,32.29-39.852
					l-0.669-0.611c-11.942,13.095-35.534,43.799-55.589,70.474L588.131,373l-0.901,0.101l5.405,48.618
					c-18.29,24.344-33.441,45.064-33.759,45.498l0.731,0.535c0.187-0.255,5.51-7.535,13.582-18.438l0.013,0.574l56.699-1.285
					l-0.021-0.906l-56.441,1.279c11.292-15.249,27.844-37.427,43.278-57.445L616.769,391.74z"/>
			</g>
			<g>
				<path style="fill:#A3B3E5;" d="M397.743,471.028H212.394c0,0-22.347-17.089-21.033-36.807
					c1.315-19.718,39.436,3.944,32.863-7.887c-6.573-11.831-19.718-7.887-24.976-31.549c-5.258-23.662,44.694-9.202,17.089-31.549
					c-27.605-22.347-47.323-35.492-38.122-51.267c9.202-15.774,32.863,1.315,23.662-14.46c-9.202-15.774-22.347-73.614,2.629-55.21
					c24.976,18.404,19.718,64.412,24.976,48.638c5.258-15.774,24.976-21.033,31.549-1.314c6.573,19.718,10.516,80.186,17.089,59.154
					c6.573-21.033,23.662-47.323,34.178-15.774c10.516,31.549,11.831,64.412,17.089,47.323s64.412-19.718,60.469,23.662
					C389.856,403.987,437.179,428.963,397.743,471.028z"/>
				<path style="fill:#F3F5FF;" d="M268.544,379.246l-32.522-8.045l0.252-1.018l31.542,7.803
					c-14.866-19.261-28.755-36.676-37.378-46.132l0.774-0.707c13.824,15.158,41.133,50.7,64.348,81.578l6.134-55.171l1.043,0.117
					l-6.257,56.279c21.172,28.18,38.711,52.165,39.078,52.668l-0.846,0.619c-0.216-0.296-6.378-8.722-15.722-21.343l-0.016,0.665
					l-65.633-1.487l0.025-1.049l65.335,1.481c-13.071-17.652-32.232-43.324-50.097-66.496L268.544,379.246z"/>
			</g>
			<path style="fill:#BBC9EF;" d="M81.788,471.158c0,0-18.897-21.417-31.495-56.692l44.094,28.346c0,0-22.677-64.881-22.047-100.155
				l34.645,44.094c0,0-7.559-65.195,0-91.809c0,0,26.456,57.794,32.755,96.848c0,0,6.299-55.432,15.118-70.55
				c0,0,15.118,44.251,13.858,61.81l16.378-35.354c0,0,17.637,45.353,0,70.55c0,0,7.559,1.26,25.196-26.456
				c0,0,6.299,56.692-18.897,79.368H81.788z"/>
			<path style="fill:#BBC9EF;" d="M523.377,471.158c0,0,20.28-22.984,33.801-60.841l-47.321,30.421c0,0,24.337-69.63,23.661-107.487
				l-37.181,47.321c0,0,8.112-69.967,0-98.529c0,0-28.393,62.024-35.153,103.937c0,0-6.76-59.49-16.224-75.714
				c0,0-16.224,47.49-14.872,66.334l-17.577-37.941c0,0-18.928,48.673,0,75.714c0,0-8.112,1.352-27.041-28.393
				c0,0-6.76,60.841,20.28,85.178H523.377z"/>
			<path style="fill:#D4DEF4;" d="M619.867,471.158c0,0-6.517-7.386-10.861-19.55l15.206,9.775c0,0-7.82-22.374-7.603-34.539
				l11.947,15.206c0,0-2.607-22.483,0-31.66c0,0,9.123,19.93,11.296,33.398c0,0,2.172-19.116,5.213-24.329
				c0,0,5.213,15.26,4.779,21.315l5.648-12.192c0,0,6.082,15.64,0,24.329c0,0,2.607,0.434,8.689-9.124c0,0,2.172,19.55-6.517,27.37
				H619.867z"/>
			<path style="fill:#D4DEF4;" d="M106.848,471.158c0,0,6.517-7.386,10.861-19.55l-15.206,9.775c0,0,7.82-22.374,7.603-34.539
				L98.159,442.05c0,0,2.607-22.483,0-31.66c0,0-9.123,19.93-11.296,33.398c0,0-2.172-19.116-5.213-24.329
				c0,0-5.213,15.26-4.779,21.315l-5.648-12.192c0,0-6.082,15.64,0,24.329c0,0-2.607,0.434-8.689-9.124c0,0-2.172,19.55,6.517,27.37
				H106.848z"/>
		</g>
		<g>
			<g>
				<g>
					<g>
						<path style="fill:#E9BEB7;" d="M185.035,441.155l1.826,13.638c0,0,0.155,8.357,8.975,7.788
							c8.82-0.569,7.492-6.497,7.492-6.497l-2.371-24.09L185.035,441.155z"/>
						<path style="fill:#4AAD95;" d="M183.033,471.26h41.825c0,0,0.664-6.354-6.07-7.872c-6.734-1.517-10.858-13.662-15.814-10.909
							c-4.956,2.753-7.137,5.219-11.216,3.701c-4.078-1.517-5.121-1.802-7.208,0.569C182.464,459.12,178.575,471.26,183.033,471.26z
							"/>
						<polygon style="fill:#DC7660;" points="201.534,437.855 185.524,444.809 185.035,441.155 						"/>
					</g>
					<g>
						<polygon style="fill:#E9BEB7;" points="130.433,457.634 132.103,433.134 149.317,435.979 148.318,456.265 						"/>
						<path style="fill:#4AAD95;" d="M155.719,471.26c0,0-0.294-5.847-3.402-10.755c-0.697-3.906-2.085-9.841-3.97-8.874
							l-0.412,4.373c-2.013-1.281-4.542-2.1-7.723-2.1c-3.857,0-6.751,1.209-8.932,2.981l0.01-0.014l-0.467-4.958
							c-2.774-1.423-4.474,12.111-4.474,12.111l0.005-0.007c-1.476,3.811-1.648,7.243-1.648,7.243H155.719z"/>
						<polygon style="fill:#DC7660;" points="131.67,439.482 148.854,445.384 148.854,441.763 						"/>
					</g>
				</g>
				<path style="fill:#E9BEB7;" d="M203.658,283.053c0,0-0.636,17.883-7.406,19.016l-1.649-17.266L203.658,283.053z"/>
				<g>
					<path style="fill:#DB9292;" d="M175.066,194.325c-3.035-3.13-4.231-12.275-4.231-12.275h-9.061h-9.061
						c0,0-1.197,9.145-4.232,12.275c0,0-1.393,11.76,13.292,11.76C176.459,206.085,175.066,194.325,175.066,194.325z"/>
					<path style="fill:#C67D7D;" d="M161.774,182.05h-9.061c0,0-1.197,9.145-4.232,12.275c0,0-1.036,8.808,8.212,11.176l6.274-9.163
						c0,0-4.616-0.637-3.194-3.554c1.423-2.916,11.498-8.18,11.498-8.18l0.001,0c-0.297-1.5-0.437-2.553-0.437-2.553H161.774z"/>
				</g>
				<polygon style="fill:none;" points="178.647,160.152 178.647,160.152 178.647,160.152 				"/>
				<g>
					<path style="fill:#4AAD95;" d="M151.981,185.991c0,0-22.628,5.231-25.663,8.076c0,0-14.62,43.505-14.605,52.609
						c0.005,3.247,6.449,13.467,15.175,13.847l-1.707,33.574h73.407l-1.299-9.678l13.249-2.841c0,0-11.95-82.701-13.847-85.167
						c-1.897-2.466-25.123-10.42-25.123-10.42S164.176,209.334,151.981,185.991z"/>
					<g>
						<path style="fill:#3A8E76;" d="M140.829,202.291l5.438-14.906l-6.861,13.388l-3.035,0.474c0,0-5.69,14.89-7.682,21.624
							c-1.992,6.734-5.88,25.986-5.88,25.986c0.569-3.509,14.416-46.187,14.416-46.187L140.829,202.291z"/>
						<path style="fill:#3A8E76;" d="M155.908,204.378c0,0-5.311,54.913-29.021,56.146c0,0,7.872,0.854,14.131-4.363
							c6.259-5.216,13.135-26.603,17.403-51.783l-4.505-0.664L155.908,204.378z"/>
						<path style="fill:#3A8E76;" d="M186.756,205.536c-1.9,10.931,10.532,78.884,10.532,78.884l2.317-0.497
							C186.888,211.679,186.725,205.97,186.756,205.536z"/>
						<path style="fill:#3A8E76;" d="M186.756,205.536c0.002-0.011,0.003-0.024,0.005-0.035
							C186.761,205.5,186.758,205.506,186.756,205.536z"/>
					</g>
				</g>
				<g>
					<polygon style="fill:#185581;" points="127.266,294.097 122.429,438.255 154.58,442.523 163.97,318.756 178.196,442.523 
						208.071,436.548 195.552,294.097 					"/>
					<polygon style="fill:#134360;" points="127.266,294.097 195.836,298.839 195.552,294.097 					"/>
				</g>
				<g>
					<g>
						<path style="fill:#DB9292;" d="M138.578,158.281c-0.079,0.042-0.165,0.068-0.241,0.117c-1.447,0.932-1.982,2.907-1.635,5.18
							c0.229,1.496,0.836,3.119,1.83,4.664c2.058,3.196,5.101,5.035,7.453,4.741c0.251-0.031,0.497-0.08,0.731-0.161
							c0.243-0.085,0.478-0.187,0.697-0.328c2.398-1.544,2.311-5.952-0.196-9.844c-0.648-1.007-1.395-1.877-2.187-2.592
							c-0.013-0.012-0.027-0.021-0.04-0.032C142.826,158.087,140.338,157.344,138.578,158.281z"/>
						<path style="fill:#DB9292;" d="M184.826,168.241c1.12-1.739,1.753-3.579,1.901-5.222c0.153-1.69-0.215-3.164-1.103-4.107
							c-0.181-0.193-0.378-0.37-0.603-0.516c-1.698-1.093-4.183-0.441-6.382,1.405c-0.103,0.087-0.21,0.162-0.312,0.255
							c-0.792,0.715-1.539,1.585-2.187,2.592c-2.506,3.892-2.594,8.3-0.196,9.844c0.219,0.141,0.454,0.243,0.697,0.328
							c0.408,0.142,0.849,0.201,1.307,0.193C180.205,172.974,182.933,171.182,184.826,168.241z"/>
					</g>
					<g>
						<path style="fill:#E9BEB7;" d="M178.788,167.455l-0.409-21.147l-33.641,0.65l0.409,21.147
							c0.073,3.781,1.405,7.232,3.565,10.001c-0.609,2.849-1.782,7.887-3.141,11.382c-1.992,5.121-4.742,12.804-4.742,12.804
							l13.088,1.423c0,0,2.75-10.432,6.07-13.373c3.32-2.94,12.14-5.69,12.804-6.828c0.664-1.138,0.682-2.047-0.655-2.351
							c0.384-0.292,0.751-0.606,1.108-0.93C176.724,177.082,178.886,172.516,178.788,167.455z"/>
						<g>
							<path style="fill:#DC7660;" d="M172.199,180.884c-0.494-0.113-2.355,0.117-5.604,0.531c-3.717,0.473-11.45,1.458-11.924,0.72
								c-0.163-0.926-2.439-8.335-4.375-8.367c-0.005,0-0.01,0-0.015,0c-0.645,0-1.104,0.687-1.404,2.107l-0.402,2.238
								c-0.028,0.155,0.075,0.303,0.23,0.331c0.157,0.027,0.303-0.075,0.331-0.23l0.401-2.23c0.313-1.483,0.695-1.648,0.848-1.648
								c0.001,0,0.002,0,0.004,0c1.228,0.021,3.522,6.189,3.824,7.898c0.088,0.5,0.851,0.725,2.422,0.725
								c1.99-0.001,5.277-0.361,10.133-0.98c2.565-0.327,4.993-0.633,5.405-0.541c0.16,0.039,0.306-0.062,0.341-0.214
								C172.448,181.071,172.352,180.919,172.199,180.884z"/>
							<path style="fill:#DC7660;" d="M169.899,184.838c-0.352,0.067-8.662,1.67-11.676,4.612c-0.112,0.11-0.115,0.29-0.004,0.402
								c0.055,0.057,0.129,0.086,0.203,0.086c0.072,0,0.143-0.027,0.199-0.081c2.891-2.822,11.3-4.444,11.384-4.46
								c0.154-0.029,0.256-0.178,0.227-0.332C170.202,184.91,170.051,184.807,169.899,184.838z"/>
						</g>
					</g>
					<path style="fill:#2C193F;" d="M176.335,151.49c0,0-14.509,4.742-12.423,2.087c0,0-13.088,3.797-10.432,0.808
						c0,0-6.734,6.043-6.544,3.187l-1.409,13.756l-2.117-12.471c0,0-2.784-0.975-4.276-0.803c0,0-2.586-13.486,0-16.805
						s3.06-2.466,3.06-2.466s13.479-11.191,22.578-10.053c9.099,1.138,5.685,2.94,5.685,2.94s7.967-0.285,12.045,4.078
						c4.078,4.363,1.56,22.237,1.56,22.237s-2.856,0.006-4.484,1.119c0,0-0.421,9.733-1.166,12.224c0,0-0.747-13.387-1.411-15.948
						C177,155.379,172.92,154.999,176.335,151.49z"/>
				</g>
			</g>
			<path style="fill:#F1DA92;" d="M139.875,104.023c0-18.082-14.659-32.741-32.741-32.741c-18.082,0-32.741,14.659-32.741,32.741
				c0,18.082,14.659,32.741,32.741,32.741c1.512,0,2.997-0.111,4.455-0.31l0.124,0.31l19.158,9.543l-7.512-13.85
				C133.222,126.817,139.875,116.2,139.875,104.023z"/>
			<text transform="matrix(1 0 0 1 96.1982 126.5654)" style="fill:#FFFFFF; font-family:'Dosis-ExtraBold'; font-size:58.1726px;">?</text>
		</g>
		<g>
			<g>
				<path style="fill:#E9BEB7;" d="M466.364,287.717c0,0,1.206,16.592-8.308,17.192l-3.035-17.192H466.364z"/>
				<g>
					<g>
						<path style="fill:#DB9292;" d="M428.329,185.036h-8.358h-8.358c0,0-2.218,8.536-6.414,11.571c0,0,2.443,19.158,14.772,19.158
							c12.329,0,14.772-19.158,14.772-19.158C430.547,193.572,428.329,185.036,428.329,185.036z"/>
						<path style="fill:#C67D7D;" d="M429.561,188.706L429.561,188.706c-0.814-2.064-1.232-3.67-1.232-3.67h-8.358h-8.358
							c0,0-0.128,0.486-0.372,1.252C412.167,187.312,418.072,193.109,429.561,188.706z"/>
					</g>
					<g>
						<g>
							<path style="fill:#DB9292;" d="M396.026,161.533c-0.081,0.043-0.17,0.07-0.248,0.12c-1.493,0.962-2.046,3.001-1.688,5.347
								c0.236,1.544,0.863,3.22,1.889,4.815c2.124,3.299,5.266,5.198,7.694,4.894c0.259-0.033,0.513-0.083,0.755-0.167
								c0.25-0.087,0.493-0.193,0.719-0.338c2.476-1.594,2.385-6.144-0.202-10.162c-0.669-1.039-1.44-1.938-2.258-2.676
								c-0.013-0.012-0.028-0.021-0.041-0.033C400.411,161.333,397.843,160.566,396.026,161.533z"/>
							<path style="fill:#DB9292;" d="M443.768,171.815c1.156-1.795,1.81-3.694,1.963-5.391c0.158-1.744-0.222-3.266-1.138-4.239
								c-0.187-0.199-0.39-0.383-0.622-0.532c-1.753-1.129-4.318-0.455-6.588,1.45c-0.107,0.09-0.217,0.167-0.322,0.263
								c-0.818,0.738-1.589,1.637-2.258,2.676c-2.587,4.018-2.678,8.568-0.202,10.162c0.226,0.145,0.469,0.251,0.719,0.338
								c0.421,0.147,0.876,0.207,1.349,0.199C438.998,176.701,441.814,174.851,443.768,171.815z"/>
						</g>
						<path style="fill:#E9BEB7;" d="M420.507,188.703c3.245-0.063,6.252-1.03,8.818-2.633c0.461-0.288,0.912-0.589,1.342-0.917
							c0.397-0.302,0.775-0.626,1.144-0.96c3.592-3.252,5.825-7.965,5.724-13.19l-0.422-21.83l-34.728,0.671l0.422,21.83
							c0.076,3.93,1.467,7.517,3.724,10.384c0.647,0.822,1.369,1.582,2.151,2.274c0.755,0.667,1.565,1.272,2.427,1.803
							C413.839,187.818,417.061,188.77,420.507,188.703z"/>
						<path style="fill:#2C193F;" d="M447.845,147.68c0-3.646-2.594-6.684-6.037-7.374c0.055-0.391,0.092-0.786,0.092-1.192
							c0-4.541-3.537-8.247-8.004-8.537c-1.516-2.407-4.19-4.012-7.246-4.012c-2.379,0-4.53,0.971-6.082,2.537
							c-1.524-1.394-3.547-2.253-5.775-2.253c-3.73,0-6.895,2.389-8.07,5.717c-0.915-0.334-1.898-0.525-2.929-0.525
							c-4.731,0-8.566,3.835-8.566,8.566c0,0.733,0.102,1.441,0.275,2.12c-2.695,0.847-4.65,3.365-4.65,6.339
							c0,2.554,1.443,4.768,3.556,5.881c-0.271,0.724-0.426,1.505-0.426,2.324c0,3.67,2.975,6.645,6.645,6.645
							c0,0,1.512,11.618,2.819,12.098c1.189,0.437-0.058-9.054,0.216-12.845c1.05-0.543,1.942-1.35,2.573-2.344
							c1.564-0.749,2.737-2.177,3.11-3.915c0.607,0.221,1.254,0.361,1.938,0.361c1.554,0,2.959-0.626,3.985-1.637
							c0.877,2.008,2.876,3.415,5.207,3.415c2.19,0,4.068-1.252,5.018-3.066c1.098,2.156,3.333,3.635,5.919,3.635
							c0.624,0,1.225-0.092,1.798-0.253c0.682,1.535,1.934,2.752,3.48,3.411c0.405,3.474-0.98,13.69,0.253,13.238
							c1.307-0.48,2.819-12.098,2.819-12.098c0.033-0.221,0.045-0.426,0.05-0.626c3.421-0.271,6.114-3.127,6.114-6.618
							c0-1.157-0.297-2.244-0.817-3.192C446.781,152.101,447.845,150.015,447.845,147.68z"/>
					</g>
				</g>
				<g>
					<path style="fill:#E9BEB7;" d="M442.869,441.054l1.826,13.638c0,0,0.155,8.357,8.975,7.788c8.82-0.569,7.492-6.497,7.492-6.497
						l-2.371-24.09L442.869,441.054z"/>
					<path style="fill:#2C193F;" d="M440.866,471.158h41.825c0,0,0.664-6.354-6.07-7.872c-6.734-1.517-10.858-13.662-15.814-10.909
						c-4.956,2.753-7.137,5.219-11.216,3.701c-4.078-1.517-5.121-1.802-7.208,0.569
						C440.297,459.019,436.408,471.158,440.866,471.158z"/>
					<polygon style="fill:#DC7660;" points="444.375,452.31 460.607,450.349 444.63,454.208 					"/>
				</g>
				<g>
					<path style="fill:#E9BEB7;" d="M406.723,441.054l-1.826,13.638c0,0-0.155,8.357-8.975,7.788
						c-8.82-0.569-7.492-6.497-7.492-6.497l2.371-24.09L406.723,441.054z"/>
					<path style="fill:#2C193F;" d="M408.726,471.158h-41.825c0,0-0.664-6.354,6.07-7.872c6.734-1.517,10.858-13.662,15.814-10.909
						c4.956,2.753,7.137,5.219,11.216,3.701c4.078-1.517,5.121-1.802,7.208,0.569C409.295,459.019,413.183,471.158,408.726,471.158z
						"/>
					<polygon style="fill:#DC7660;" points="389.095,449.229 405.13,452.955 405.31,451.092 					"/>
				</g>
				<path style="fill:#E9BEB7;" d="M366.745,233.109c0,0-2.765-6.074-6.294-7.18c-3.529-1.107-10.106-1.53-13.1-2.916
					c-2.994-1.386-9.185-5.415-10.452-3.278c-1.267,2.137,8.453,7.273,8.453,7.273s-9.59-0.324-11.048-1.378
					c-1.459-1.054-6.636-8.79-8.139-7.324c-1.504,1.467,5.784,11.505,7.608,12.823c1.823,1.317,17.622,4.185,19.302,5.01
					c1.68,0.825,2.513,1.373,2.513,1.373L366.745,233.109z"/>
				<polygon style="fill:none;" points="437.39,163.465 437.39,163.465 437.39,163.465 				"/>
				<g>
					<polygon style="fill:#F7CD3C;" points="387.156,297.375 372.321,447.303 413.861,452.074 423.575,321.222 434.364,453.52 
						474.829,448.63 457.196,297.375 					"/>
					<polygon style="fill:#CBA42C;" points="387.156,297.375 458.295,306.8 457.196,297.375 					"/>
				</g>
				<g>
					<path style="fill:#185581;" d="M410.382,188.706c0,0-20.909,6.81-24.134,10.604c-3.225,3.794-11.191,43.437-11.191,43.437
						l-11.001-15.933l-13.847,11.191c0,0,27.927,43.058,30.087,43.437c2.159,0.379,5.004-1.138,5.004-1.138l-2.276,17.071h37.747
						h38.505v-7.398l13.088-4.173c0,0-6.639-82.511-14.795-86.874c-8.156-4.363-28.007-10.224-28.007-10.224
						s-3.18,8.043-9.59,11.695C419.971,200.401,414.232,195.354,410.382,188.706z"/>
					<g>
						<path style="fill:#134360;" d="M450.731,216.092c-0.233-1.1-0.449-1.898-0.641-2.325
							C450.09,213.767,450.306,214.418,450.731,216.092z"/>
						<path style="fill:#134360;" d="M462.701,288.885c-6.361-48.132-10.469-66.871-11.97-72.793
							c2.877,13.557,8.544,73.886,8.544,73.886L462.701,288.885z"/>
						<polygon style="fill:#134360;" points="383.204,280.304 393.935,213.767 380.377,281.332 						"/>
						<path style="fill:#134360;" d="M382.471,257.797c0,0,3.335-10.539-7.415-15.05
							C375.056,242.747,383.068,247.412,382.471,257.797z"/>
					</g>
				</g>
			</g>
			<path style="fill:#F1DA92;" d="M456.395,113.422c0-18.082,14.659-32.741,32.741-32.741s32.741,14.659,32.741,32.741
				s-14.659,32.741-32.741,32.741c-1.512,0-2.997-0.111-4.455-0.31l-0.124,0.31l-19.158,9.543l7.512-13.85
				C463.048,136.215,456.395,125.599,456.395,113.422z"/>
			
				<text transform="matrix(1 0 0 1 478.0342 136.8482)" style="fill:#FFFFFF; font-family:'Dosis-ExtraBold'; font-size:58.1726px;">?</text>
		</g>
		<g>
			<g>
				<g>
					<g>
						<path style="fill:#DB9292;" d="M273.546,325.615c-0.011-0.013-0.023-0.023-0.034-0.035c-1.846-2.083-4.132-3.064-5.91-2.367
							c-0.08,0.031-0.164,0.046-0.242,0.085c-1.479,0.727-2.207,2.547-2.127,4.749c0.052,1.449,0.451,3.061,1.227,4.64
							c1.606,3.268,4.299,5.354,6.569,5.333h0c0.243-0.002,0.482-0.021,0.713-0.073c0.24-0.054,0.476-0.125,0.699-0.235
							c2.453-1.205,2.855-5.409,0.9-9.389C274.836,327.294,274.22,326.383,273.546,325.615z"/>
						<path style="fill:#DB9292;" d="M312.303,329.005c-0.151-0.203-0.318-0.394-0.517-0.557c-1.495-1.228-3.932-0.881-6.228,0.633
							c-0.108,0.071-0.218,0.131-0.325,0.208c-0.833,0.593-1.64,1.339-2.367,2.225c-2.814,3.428-3.384,7.612-1.272,9.346
							c0.193,0.158,0.405,0.282,0.627,0.389c0.372,0.18,0.785,0.284,1.221,0.327c0,0,0,0,0.001,0
							c2.151,0.212,4.945-1.193,7.071-3.782c1.257-1.531,2.063-3.212,2.385-4.76C313.231,331.443,313.043,330,312.303,329.005z"/>
					</g>
					<g>
						<path style="fill:#DB9292;" d="M294.654,348.352l-6.882,1.117v-0.019l-6.491-1.477c0,0-0.149,6.741-4.701,9.159
							c0,0-0.093,12.511,11.183,12.519v0.018c11.285,0,11.192-12.519,11.192-12.519
							C294.402,354.731,294.654,348.352,294.654,348.352z"/>
						<path style="fill:#C67D7D;" d="M298.954,357.15c-4.552-2.418-4.301-8.797-4.301-8.797l-6.882,1.117v-0.019l-6.491-1.477
							c0,0-0.01,0.404-0.089,1.044c0,0,5.14,4.145,10.534,3.922c0,0-2.668,4.141-0.676,7.365l-3.3,6.086l4.743,2.352
							C299.013,365.849,298.954,357.15,298.954,357.15z"/>
					</g>
					<path style="fill:#E9BEB7;" d="M287.265,350.876c2.999,0.289,5.874-0.281,8.41-1.485c0.455-0.216,0.904-0.446,1.335-0.702
						c0.398-0.236,0.781-0.494,1.157-0.762c3.659-2.614,6.221-6.72,6.686-11.548l1.944-20.169l-32.086-3.093l-1.944,20.169
						c-0.35,3.631,0.549,7.086,2.323,9.971c0.509,0.827,1.093,1.605,1.74,2.326c0.624,0.696,1.307,1.34,2.044,1.922
						C281.213,349.348,284.081,350.569,287.265,350.876z"/>
					<path style="fill:#2C193F;" d="M314.468,332.137c2.354-15.364-3.504-32.889-20.944-34.911
						c-17.439-2.022-25.012,7.238-27.224,20.761c-2.559,15.635-9.026,22.011-9.026,22.011s6.794,15.278,18.175,14.567
						c0.304-0.019,0.574-0.018,0.833-0.01c1.636-0.365,2.879-0.625,3.451-0.742c0.934-1.759,1.318-3.654,1.459-4.794
						c-0.817-0.442-1.595-0.943-2.316-1.512c-0.737-0.581-1.42-1.225-2.044-1.922c-0.647-0.721-1.231-1.499-1.74-2.326
						c-0.979-1.592-1.68-3.363-2.063-5.237c-2.271,0.021-4.964-2.065-6.569-5.333c-0.776-1.58-1.175-3.192-1.227-4.64
						c-0.08-2.202,0.648-4.022,2.127-4.749c0.078-0.038,0.162-0.053,0.242-0.085c1.393-0.546,3.095-0.051,4.656,1.186
						c-0.002,0.179-0.153,14.017,0.555,12.354c0.003-0.006,0.005-0.015,0.008-0.021c0.717-1.738,2.288-13.036,2.288-13.036
						l1.565-1.922c-0.76,2.496,5.434-0.809,5.434-0.809c-2.339,2.88,10.662,1.379,10.662,1.379c-1.362,2.563,11.54-1.67,11.54-1.67
						c-0.314,1.264-0.232,2.718-0.004,4.059l-0.001,0c0,0-0.835,13.817-0.524,15.61c0.02,0.118,0.053,0.165,0.096,0.158
						c0.604-0.108,3.273-12.065,3.273-12.065c0.017-0.076,0.021-0.143,0.034-0.216c1.762-0.723,3.458-0.711,4.603,0.229
						c0.198,0.163,0.365,0.354,0.517,0.557c0.741,0.995,0.928,2.438,0.596,4.03c-0.322,1.547-1.128,3.228-2.385,4.76
						c-2.126,2.589-4.92,3.994-7.071,3.782c0,0,0,0,0,0c-0.001,0-0.001,0.001-0.001,0.001c-0.275,0.592-0.59,1.158-0.931,1.706
						c-0.084,0.135-0.176,0.264-0.264,0.397c-0.271,0.408-0.557,0.802-0.862,1.182c-0.122,0.152-0.245,0.303-0.373,0.45
						c-0.307,0.355-0.63,0.692-0.965,1.018c-0.132,0.129-0.258,0.262-0.395,0.386c-0.473,0.429-0.963,0.838-1.483,1.21
						c-0.376,0.268-0.759,0.526-1.157,0.762c-0.432,0.256-0.88,0.486-1.336,0.702c-0.308,0.146-0.636,0.252-0.954,0.379
						c0.107,1.044,0.385,2.518,1.065,3.942c0.222,0.075,0.472,0.16,0.733,0.249c2.6,0.546,9.415,2.035,15.285,3.807
						c4.887-3.246,6.861-7.489,6.861-7.489S312.114,347.5,314.468,332.137z"/>
				</g>
				<g>
					<path style="fill:#F7CD3C;" d="M325.287,411.706c5.88-3.414,5.327-9.453,5.327-9.453h0
						c-3.009-17.037-7.232-38.405-9.714-40.622c-4.033-3.604-25.472-7.893-25.472-7.893c-2.232,8.596-7.196,12.34-7.662,12.652
						c-0.467-0.312-5.438-4.056-7.67-12.652c0,0-21.431,4.289-25.464,7.893c-4.033,3.604-11.365,55.707-11.915,59.69
						c0,0,10.066,18.078,45.003,18.119v0.002c0.016,0,0.03-0.001,0.046-0.001c0.016,0,0.03,0.001,0.046,0.001v-0.002
						c20.691-0.024,33.112-5.649,39.802-10.233l-4.225,0.899L325.287,411.706z"/>
					<g>
						<path style="fill:#CBA42C;" d="M260.977,426.207l1.526-48.738c-1.992,4.552-5.264,47.765-5.264,47.765L260.977,426.207z"/>
						<path style="fill:#CBA42C;" d="M315.139,380.598l-17.784-16.693l-1.111,0.59c2.122-3.783-0.807-10.759-0.807-10.759
							c0.046,6.428-7.67,12.652-7.67,12.652c3.697,0.879,5.996,0.472,7.381-0.612c0.743,0.644,2.064,2.215,2.989,5.717
							c1.353,5.121,12.716,34.854,12.716,34.854l7.021-23.692v-7.274L315.139,380.598z"/>
						<path style="fill:#CBA42C;" d="M280.097,353.737c0,0-6.756,16.083,7.67,12.652
							C287.767,366.389,280.051,360.165,280.097,353.737z"/>
					</g>
					<g>
						<path style="fill:#FFFFFF;" d="M280.092,353.738c-7.306,14.111,7.675,12.651,7.675,12.651
							C283.583,363.276,280.092,353.738,280.092,353.738z"/>
						<path style="fill:#FFFFFF;" d="M295.424,353.738c0,0-3.491,9.538-7.675,12.651C287.75,366.389,302.73,367.849,295.424,353.738
							z"/>
					</g>
				</g>
				<g>
					<path style="fill:#E9BEB7;" d="M297.518,350.581c0,0-4.002-9.062-2.152-9.439s5.935,5.935,8.587,12.595
						c2.652,6.66,2.794,10.928,5.924,16.049c3.13,5.121,17.64,26.887,16.929,32.862c-0.711,5.975-13.266,10.243-15.951,3.699
						c-2.685-6.544-10.94-36.703-12.716-38.98c-1.776-2.276-3.966-2.591-4.337-5.406c0,0-2.561-2.561-1.992-4.552
						c0,0-0.379-2.988,1.091-4.126C292.899,353.284,294.264,349.585,297.518,350.581z"/>
					<g>
						<path style="fill:#DC7660;" d="M300.578,346.205c-1.939-4.343-3.232-6.244-5.328-5.324c-0.255,0.112-0.442,0.321-0.556,0.619
							c-0.687,1.805,1.572,6.865,1.832,7.436c0.048,0.104,0.151,0.167,0.259,0.167c0.039,0,0.079-0.008,0.118-0.026
							c0.143-0.066,0.206-0.233,0.141-0.377c-0.678-1.491-2.328-5.657-1.818-6.997c0.058-0.153,0.141-0.252,0.253-0.302
							c1.497-0.654,2.562,0.52,4.579,5.035c0.064,0.144,0.231,0.207,0.376,0.144C300.578,346.517,300.642,346.349,300.578,346.205z"
							/>
						<path style="fill:#DC7660;" d="M293.574,357.567c-0.58-0.575-1.68-0.455-1.801-0.44c-0.156,0.02-0.266,0.161-0.247,0.318
							c0.019,0.156,0.161,0.262,0.317,0.247c0.259-0.029,1.004-0.042,1.329,0.28c0.056,0.055,0.128,0.082,0.201,0.082
							c0.073,0,0.146-0.028,0.202-0.085C293.686,357.859,293.685,357.678,293.574,357.567z"/>
						<path style="fill:#DC7660;" d="M293.695,361.697c-0.145,0.058-0.214,0.22-0.158,0.366c0.055,0.146,0.219,0.218,0.366,0.164
							c0.023-0.008,0.58-0.206,1.28,0.38c0.053,0.044,0.118,0.065,0.182,0.065c0.081,0,0.162-0.034,0.218-0.102
							c0.101-0.121,0.085-0.3-0.036-0.401C294.576,361.361,293.731,361.685,293.695,361.697z"/>
						<path style="fill:#DC7660;" d="M292.967,353.561c0.011-0.003,1.07-0.251,1.676,0.375c0.056,0.058,0.13,0.087,0.204,0.087
							c0.071,0,0.143-0.027,0.198-0.08c0.113-0.109,0.116-0.289,0.007-0.402c-0.836-0.865-2.166-0.547-2.221-0.531
							c-0.152,0.038-0.245,0.191-0.208,0.343C292.661,353.505,292.816,353.599,292.967,353.561z"/>
					</g>
				</g>
				<path style="fill:#DC7660;" d="M326.805,402.649c0.284-2.385-1.86-7.287-4.734-12.64l-16.118,1.182
					c2.001,6.594,3.866,12.633,4.901,15.157C313.538,412.891,326.094,408.624,326.805,402.649z"/>
				<path style="fill:#185581;" d="M325.275,446.74h-64.752c-1.814,0-3.284-1.47-3.284-3.284v-48.981
					c0-1.814,1.47-3.284,3.284-3.284h64.752c1.814,0,3.284,1.47,3.284,3.284v48.981C328.559,445.27,327.089,446.74,325.275,446.74z"
					/>
				<g>
					<g>
						<ellipse style="fill:#185581;" cx="311.337" cy="459.502" rx="28.452" ry="11.76"/>
						<path style="fill:#DB9292;" d="M283.623,459.957c0.994,5.204,7.948,8.249,15.532,6.8c7.584-1.448,12.927-6.841,11.934-12.045
							c-0.994-5.204-7.948-8.248-15.532-6.8C287.972,449.36,282.629,454.753,283.623,459.957z"/>
					</g>
					<g>
						<path style="fill:#4AAD95;" d="M305.922,443.944c0,0-29.947-13.639-44.945-17.737c-14.998-4.098-33.124-6.8-38.2-3.216
							c-5.076,3.584-9.255,19.213-5.04,24.37c4.215,5.157,77.902,19.773,83.3,18.186
							C306.435,463.96,318.239,458.023,305.922,443.944z"/>
						<path style="fill:#3A8E76;" d="M301.037,465.547c5.398-1.587,17.201-7.524,4.885-21.603c0,0-6.282-2.86-14.526-6.353
							c-0.01,0.003-15.918,3.971-19.655,7.821c0,0-21.915-0.496-28.76,10.023l0,0C266.255,460.958,297.588,466.561,301.037,465.547z
							"/>
					</g>
				</g>
				<g>
					<g>
						<ellipse style="fill:#185581;" cx="269.685" cy="459.502" rx="28.452" ry="11.76"/>
						<path style="fill:#DB9292;" d="M297.399,459.957c-0.994,5.204-7.947,8.249-15.532,6.8s-12.927-6.841-11.934-12.045
							c0.994-5.204,7.948-8.248,15.532-6.8C293.049,449.36,298.392,454.753,297.399,459.957z"/>
					</g>
					<path style="fill:#4AAD95;" d="M277.156,443.944c0,0,29.947-13.639,44.945-17.737c14.998-4.098,33.124-6.8,38.2-3.216
						c5.076,3.584,9.255,19.213,5.04,24.37c-4.215,5.157-77.902,19.773-83.301,18.186
						C276.642,463.96,264.839,458.023,277.156,443.944z"/>
				</g>
			</g>
			<path style="fill:#F1DA92;" d="M269.693,252.117h-36.271c-7.427,0-13.448,6.021-13.448,13.448v7.439
				c0,7.427,6.021,13.448,13.448,13.448h36.271l7.862,5.754l1.517-9.574l0,0c2.507-2.443,4.07-5.851,4.07-9.628v-7.439
				C283.142,258.138,277.121,252.117,269.693,252.117z"/>
			<g>
				<path style="fill:#FFFFFF;" d="M236.469,265.449c-2.065,0-3.739,1.674-3.739,3.739c0,2.065,1.674,3.739,3.739,3.739
					c2.065,0,3.739-1.674,3.739-3.739C240.209,267.124,238.535,265.449,236.469,265.449z"/>
				<path style="fill:#FFFFFF;" d="M251.131,265.449c-2.065,0-3.739,1.674-3.739,3.739c0,2.065,1.674,3.739,3.739,3.739
					c2.065,0,3.739-1.674,3.739-3.739C254.87,267.124,253.196,265.449,251.131,265.449z"/>
				<path style="fill:#FFFFFF;" d="M266.161,265.449c-2.065,0-3.739,1.674-3.739,3.739c0,2.065,1.674,3.739,3.739,3.739
					c2.065,0,3.739-1.674,3.739-3.739C269.9,267.124,268.226,265.449,266.161,265.449z"/>
			</g>
		</g>
		<g>
			<path style="fill:#F1DA92;" d="M622.502,155.984h36.271c7.427,0,13.448,6.021,13.448,13.448v7.439
				c0,7.427-6.021,13.448-13.448,13.448h-36.271l-7.862,5.754l-1.517-9.574l0,0c-2.508-2.443-4.07-5.851-4.07-9.628v-7.439
				C609.053,162.005,615.074,155.984,622.502,155.984z"/>
			<g>
				<g>
					<g>
						<path style="fill:#DB9292;" d="M577.372,159.337c0.011-0.014,0.023-0.026,0.035-0.04c1.859-2.354,4.257-3.549,6.213-2.909
							c0.088,0.029,0.18,0.04,0.265,0.076c1.636,0.691,2.531,2.605,2.58,4.979c0.032,1.562-0.298,3.32-1.036,5.067
							c-1.527,3.614-4.296,6.024-6.741,6.141c-0.261,0.012-0.52,0.007-0.772-0.035c-0.262-0.043-0.519-0.106-0.767-0.21
							c-2.712-1.146-3.404-5.644-1.544-10.046C576.088,161.222,576.694,160.205,577.372,159.337z"/>
						<path style="fill:#DB9292;" d="M535.885,165.36c0.15-0.228,0.318-0.444,0.522-0.631c1.533-1.413,4.176-1.189,6.739,0.299
							c0.121,0.07,0.242,0.128,0.362,0.203c0.932,0.587,1.846,1.34,2.684,2.249c3.238,3.515,4.107,7.982,1.941,9.977
							c-0.197,0.182-0.419,0.328-0.65,0.457c-0.39,0.217-0.827,0.354-1.294,0.427l-0.001,0c-2.302,0.359-5.393-0.98-7.839-3.636
							c-1.447-1.57-2.416-3.329-2.858-4.974C535.036,168.04,535.149,166.476,535.885,165.36z"/>
					</g>
					<g>
						<path style="fill:#DB9292;" d="M554.946,184.482h8.206h8.206c0,0,0.419,6.997,3.205,8.325c0,0-3.51,12.234-11.411,12.234
							c-7.901,0-11.411-12.234-11.411-12.234C554.527,191.479,554.946,184.482,554.946,184.482z"/>
						<path style="fill:#C67D7D;" d="M554.517,187.557c0.343-1.669,0.429-3.075,0.429-3.075h8.206h8.206
							C571.357,184.482,564.968,190.838,554.517,187.557z"/>
					</g>
					<path style="fill:#E9BEB7;" d="M564.161,187.354c-3.208,0.495-6.336,0.058-9.139-1.082c-0.503-0.205-0.999-0.424-1.48-0.673
						c-0.443-0.229-0.871-0.483-1.292-0.749c-4.097-2.587-7.104-6.848-7.901-12.014l-3.328-21.579l34.329-5.294l3.328,21.579
						c0.599,3.884-0.156,7.657-1.888,10.869c-0.497,0.921-1.077,1.793-1.729,2.609c-0.629,0.787-1.324,1.522-2.082,2.193
						C570.579,185.34,567.568,186.829,564.161,187.354z"/>
					<path style="fill:#2C193F;" d="M528.506,196.98c1.423-7.113,7.824-15.364,5.264-30.22
						c-2.561-14.856-1.203-34.214,19.851-38.624c21.055-4.41,29.656,17.488,31.789,26.166s6.828,19.49,8.393,28.499
						c1.023,5.89-0.202,10.126-1.174,12.362c-4.519-3.356-20.57-6.457-20.57-6.457v0c-0.573-2.12-0.702-4.224-0.702-4.224h-0.008
						c0.569-0.393,1.116-0.813,1.631-1.268c0.757-0.671,1.453-1.406,2.082-2.193c0.652-0.816,1.233-1.688,1.729-2.609
						c0.956-1.773,1.601-3.721,1.898-5.76c2.444-0.117,5.213-2.526,6.741-6.141c0.738-1.747,1.068-3.506,1.036-5.067
						c-0.049-2.374-0.944-4.288-2.58-4.979c-0.086-0.036-0.178-0.047-0.265-0.076c-1.467-0.481-3.183,0.072-4.733,1.371
						c0,0,0.707,13.905-0.013,12.87c-0.719-1.035-2.853-12.655-2.853-12.655c0.284,2.677-5.994-2.268-5.994-2.268
						c1.262,2.969-12.974-3.538-12.974-3.538c-2.607,7.398-7.729,2.988-7.729,2.988c-1.801,7.682-5.312,6.876-5.312,6.876
						l-0.576,1.991c0.573,3.037,2.335,12.616,1.613,11.838c-0.783-0.844-3.965-10.26-4.512-11.888
						c-1.63-0.381-3.122-0.173-4.13,0.757c-0.203,0.188-0.371,0.403-0.522,0.631c-0.736,1.116-0.849,2.68-0.395,4.372
						c0.442,1.645,1.411,3.404,2.858,4.974c2.446,2.655,5.537,3.995,7.839,3.636l0.001,0c1.435,2.683,3.539,4.916,6.062,6.509
						c0.421,0.266,0.849,0.52,1.292,0.749c0.396,0.205,0.807,0.382,1.22,0.555c-0.107,0.738-0.276,1.644-0.522,2.552
						c-0.07,0.014-18.285,3.538-21.314,7.135c-0.651,0.773-2.379,3.883-4.688,8.353C527.772,202.251,527.931,199.852,528.506,196.98
						z"/>
				</g>
				<g>
					<g>
						<path style="fill:#E9BEB7;" d="M537.15,441.054l-1.826,13.638c0,0-0.155,8.357-8.975,7.788
							c-8.82-0.569-7.492-6.497-7.492-6.497l2.371-24.09L537.15,441.054z"/>
						<path style="fill:#185581;" d="M539.152,471.158h-41.825c0,0-0.664-6.354,6.07-7.872c6.734-1.517,10.858-13.662,15.814-10.909
							c4.956,2.753,7.138,5.219,11.216,3.701c4.078-1.517,5.121-1.802,7.208,0.569C539.721,459.019,543.61,471.158,539.152,471.158z
							"/>
						<polygon style="fill:#DC7660;" points="520.299,441.328 536.327,447.201 536.764,443.934 						"/>
					</g>
					<g>
						<polygon style="fill:#E9BEB7;" points="591.753,457.533 590.082,433.032 572.868,435.878 573.868,456.163 						"/>
						<path style="fill:#185581;" d="M566.466,471.158c0,0,0.294-5.847,3.402-10.755c0.697-3.906,2.085-9.841,3.97-8.874
							l0.412,4.373c2.013-1.281,4.542-2.1,7.723-2.1c3.857,0,6.751,1.208,8.932,2.981l-0.01-0.014l0.468-4.958
							c2.774-1.423,4.474,12.111,4.474,12.111l-0.005-0.007c1.476,3.811,1.648,7.243,1.648,7.243H566.466z"/>
						<polygon style="fill:#DC7660;" points="590.765,443.052 573.491,448.515 573.403,444.719 						"/>
					</g>
				</g>
				<g>
					<path style="fill:#185581;" d="M594.894,289.165l7.303,152.789l-35.724,3.43l-8.689-116.385l-12.776,116.385l-31.297-5.137
						l17.699-151.081C531.409,289.165,566.537,269.533,594.894,289.165z"/>
					<path style="fill:#134360;" d="M531.409,289.165c0,0,35.127-19.632,63.485,0l-64.014,4.519L531.409,289.165z"/>
				</g>
				<g>
					<path style="fill:#4AAD95;" d="M532.927,195.842c3.035-3.604,21.317-7.136,21.317-7.136c0.155,4.857,8.907,8.084,8.908,8.084
						c0,0,8.753-3.227,8.908-8.084c0,0,18.282,3.532,21.317,7.136c3.035,3.604,29.401,57.853,29.401,64.681
						c0,6.829-6.449,17.261-12.14,17.451c-5.69,0.19-13.219-7.208-13.219-7.208s1.459,17.64-2.524,18.399
						c-3.983,0.759-31.742-1.448-31.742-1.448l0,0c-0.002,0-27.759,2.207-31.742,1.448c-3.983-0.759-2.524-18.399-2.524-18.399
						s-7.529,7.398-13.219,7.208c-5.691-0.19-12.14-10.622-12.14-17.451C503.526,253.695,529.892,199.446,532.927,195.842z"/>
					<g>
						<polygon style="fill:#3A8E76;" points="543.089,250.251 542.265,248.064 556.341,243.185 575.641,244.162 582.971,250.109 
							581.237,255.781 597.418,270.766 578.866,256.976 579.435,252.841 572.857,249.712 553.515,249.712 545.672,250.945 
							546.715,255.212 528.885,270.766 544.723,255.118 						"/>
						<polygon style="fill:#3A8E76;" points="587.047,240.258 584.936,239.848 586.548,235.905 593.338,238.435 591.006,217.529 
							596.317,239.753 618.415,252.557 588.54,239.015 						"/>
						<polygon style="fill:#3A8E76;" points="538.027,239.015 508.152,252.557 530.25,239.753 535.561,217.529 533.229,238.435 
							540.019,235.905 541.631,239.848 539.52,240.258 						"/>
					</g>
				</g>
				<g>
					<path style="fill:#FFFFFF;" d="M556.311,217.529h13.749c1.544,0,2.797,1.252,2.797,2.796v24.942
						c0,1.544-1.252,2.796-2.797,2.796h-13.749c-1.544,0-2.796-1.252-2.796-2.796v-24.942
						C553.515,218.781,554.767,217.529,556.311,217.529z"/>
					<g>
						<path style="fill:#E9BEB7;" d="M543.797,235.826c2.927-3.131,6.749-8.091,7.563-8.538c0.813-0.447,2.155-1.464,2.155-1.464
							v6.262c0,0,2.765-0.163,6.627-1.017c3.863-0.854,5.936-1.83,6.993-2.684c1.057-0.854,3.253-1.179,2.765,0.203
							c-0.488,1.382-1.46,3.248-1.46,3.248s0.103,1.535-0.792,2.47c-0.771,0.806-1.017,0.988-1.092,1.012
							c0.186,0.19,1.208,1.367-0.205,3.003c0,0,0.744,1.448-1.045,3.44c-1.789,1.992-5.245,3.741-8.62,4.838
							c-3.375,1.098-4.147,0.285-8.173,1.545c-2.137,0.669-4.073,1.485-5.425,2.106l-3.764-9.993
							C539.325,240.258,540.87,238.957,543.797,235.826z"/>
						<g>
							<path style="fill:#DC7660;" d="M568.701,231.419c-0.045-0.049-0.123-0.052-0.172-0.008
								c-0.048,0.044-4.907,4.418-12.001,4.171c-0.062,0.002-0.123,0.05-0.126,0.118c-0.002,0.068,0.051,0.124,0.118,0.126
								c0.192,0.006,0.382,0.01,0.571,0.01c6.891,0,11.555-4.201,11.603-4.244C568.743,231.546,568.746,231.468,568.701,231.419z"/>
							<path style="fill:#DC7660;" d="M566.44,235.202c-0.03,0.03-3.085,3.001-8.554,3.919c-0.067,0.011-0.111,0.074-0.1,0.14
								c0.01,0.06,0.062,0.102,0.12,0.102c0.007,0,0.014-0.001,0.021-0.002c5.544-0.93,8.655-3.956,8.685-3.986
								c0.048-0.047,0.048-0.125,0.001-0.173C566.565,235.154,566.488,235.155,566.44,235.202z"/>
							<path style="fill:#DC7660;" d="M566.261,238.239c-0.034,0.037-3.427,3.669-7.653,4.706c-0.066,0.016-0.106,0.083-0.089,0.148
								c0.014,0.056,0.063,0.093,0.118,0.093c0.01,0,0.019-0.001,0.029-0.003c4.296-1.054,7.739-4.74,7.774-4.777
								c0.046-0.05,0.043-0.127-0.007-0.173C566.385,238.186,566.307,238.191,566.261,238.239z"/>
							<path style="fill:#DC7660;" d="M553.495,231.965c-0.139,0.023-3.429,0.591-4.782,1.945c-0.048,0.048-0.048,0.125,0,0.173
								c0.024,0.024,0.055,0.036,0.086,0.036c0.031,0,0.063-0.012,0.086-0.036c1.299-1.298,4.617-1.871,4.65-1.877
								c0.066-0.011,0.111-0.074,0.1-0.141C553.624,231.999,553.561,231.952,553.495,231.965z"/>
						</g>
						<path style="opacity:0.65;fill:#B88180;" d="M558.26,240.693c-0.569-1.817,0.488-2.671,0.488-2.671s-0.668-1.604-0.232-2.855
							c0,0-1.689-1.677-2.175-3.4c1.053-0.154,2.349-0.377,3.801-0.698c3.863-0.854,5.936-1.83,6.993-2.684
							c1.057-0.854,3.253-1.179,2.765,0.203c-0.488,1.382-1.46,3.248-1.46,3.248s0.103,1.535-0.792,2.47
							c-0.77,0.805-1.016,0.988-1.092,1.012c-0.018-0.018-0.03-0.03-0.03-0.03s-0.016,0.045,0.03,0.03
							c0.186,0.19,1.208,1.368-0.205,3.003c0,0,0.744,1.448-1.045,3.44c-0.769,0.856-1.846,1.666-3.091,2.4
							C562.203,244.156,558.828,242.507,558.26,240.693z"/>
					</g>
					<g>
						<path style="fill:#E9BEB7;" d="M559.236,228.385c1.057,0.854,3.131,1.83,6.993,2.684c3.863,0.854,6.628,1.017,6.628,1.017
							v-6.262c0,0,1.342,1.016,2.155,1.464c0.813,0.447,4.635,5.408,7.563,8.538c2.928,3.131,4.473,4.432,4.473,4.432
							c0.029,0.024,0.052,0.048,0.081,0.072l-4.157,9.78c-1.33-0.599-3.137-1.345-5.113-1.964c-4.025-1.26-4.798-0.447-8.172-1.545
							s-6.831-2.846-8.62-4.838c-1.789-1.992-1.045-3.44-1.045-3.44c-1.413-1.636-0.391-2.813-0.205-3.003
							c-0.076-0.023-0.322-0.206-1.092-1.012c-0.895-0.935-0.792-2.47-0.792-2.47s-0.972-1.866-1.46-3.248
							S558.179,227.531,559.236,228.385z"/>
						<g>
							<path style="fill:#DC7660;" d="M557.671,231.419c0.045-0.049,0.123-0.052,0.172-0.008c0.048,0.044,4.907,4.418,12.001,4.171
								c0.062,0.002,0.124,0.05,0.126,0.118c0.002,0.068-0.051,0.124-0.118,0.126c-0.192,0.006-0.382,0.01-0.571,0.01
								c-6.891,0-11.555-4.201-11.603-4.244C557.629,231.546,557.626,231.468,557.671,231.419z"/>
							<path style="fill:#DC7660;" d="M559.932,235.202c0.03,0.03,3.085,3.001,8.554,3.919c0.066,0.011,0.111,0.074,0.1,0.14
								c-0.01,0.06-0.062,0.102-0.12,0.102c-0.007,0-0.014-0.001-0.021-0.002c-5.544-0.93-8.654-3.956-8.685-3.986
								c-0.048-0.047-0.048-0.125-0.001-0.173C559.806,235.154,559.884,235.155,559.932,235.202z"/>
							<path style="fill:#DC7660;" d="M560.11,238.239c0.034,0.037,3.427,3.669,7.653,4.706c0.065,0.016,0.106,0.083,0.089,0.148
								c-0.013,0.056-0.063,0.093-0.118,0.093c-0.009,0-0.019-0.001-0.029-0.003c-4.296-1.054-7.739-4.74-7.774-4.777
								c-0.046-0.05-0.043-0.127,0.007-0.173C559.987,238.186,560.064,238.191,560.11,238.239z"/>
							<path style="fill:#DC7660;" d="M572.877,231.965c0.139,0.023,3.429,0.591,4.782,1.945c0.048,0.048,0.048,0.125,0,0.173
								c-0.024,0.024-0.055,0.036-0.086,0.036s-0.062-0.012-0.086-0.036c-1.299-1.298-4.617-1.871-4.65-1.877
								c-0.066-0.011-0.111-0.074-0.1-0.141C572.748,231.999,572.811,231.952,572.877,231.965z"/>
						</g>
					</g>
				</g>
			</g>
			<g>
				<path style="fill:#FFFFFF;" d="M625.792,169.273c-2.065,0-3.739,1.674-3.739,3.739c0,2.065,1.674,3.739,3.739,3.739
					c2.065,0,3.739-1.674,3.739-3.739C629.531,170.947,627.857,169.273,625.792,169.273z"/>
				<path style="fill:#FFFFFF;" d="M640.453,169.273c-2.065,0-3.739,1.674-3.739,3.739c0,2.065,1.674,3.739,3.739,3.739
					s3.739-1.674,3.739-3.739C644.192,170.947,642.518,169.273,640.453,169.273z"/>
				<circle style="fill:#FFFFFF;" cx="655.483" cy="173.012" r="3.739"/>
			</g>
		</g>
		<g>
			
				<text transform="matrix(0.9495 -0.3139 0.3139 0.9495 250.3645 214.8057)" style="fill:#CCD4F2; font-family:'Dosis-ExtraBold'; font-size:184.078px;">?</text>
			<g>
				
					<text transform="matrix(0.9571 0.2897 -0.2897 0.9571 542.2165 112.4594)" style="fill:#FFFFFF; font-family:'Dosis-ExtraBold'; font-size:78.7448px;">?</text>
			</g>
			<g>
				
					<text transform="matrix(0.9773 0.2117 -0.2117 0.9773 298.9101 284.3877)" style="fill:#FFFFFF; font-family:'Dosis-ExtraBold'; font-size:58.1726px;">?</text>
			</g>
			
				<text transform="matrix(0.9377 -0.3475 0.3475 0.9377 62.2377 279.9998)" style="fill:#F1DA92; font-family:'Dosis-ExtraBold'; font-size:58.1726px;">?</text>
			<g>
				
					<text transform="matrix(0.9239 0.3826 -0.3826 0.9239 625.8066 260.5656)" style="fill:#FFFFFF; font-family:'Dosis-ExtraBold'; font-size:53.1911px;">?</text>
			</g>
			<g>
				
					<text transform="matrix(0.9495 -0.3139 0.3139 0.9495 247.3645 213.8057)" style="fill:#FFFFFF; font-family:'Dosis-ExtraBold'; font-size:184.078px;">?</text>
			</g>
			<g>
				<circle style="fill:#FFFFFF;" cx="324.943" cy="151.297" r="3.739"/>
				<circle style="fill:#FFFFFF;" cx="339.605" cy="151.297" r="3.739"/>
				<circle style="fill:#FFFFFF;" cx="354.634" cy="151.297" r="3.739"/>
			</g>
			<g>
				<path style="fill:#FFFFFF;" d="M482.464,183.947c-2.065,0-3.739,1.674-3.739,3.739c0,2.065,1.674,3.739,3.739,3.739
					c2.065,0,3.739-1.674,3.739-3.739C486.203,185.621,484.529,183.947,482.464,183.947z"/>
				<path style="fill:#FFFFFF;" d="M497.126,183.947c-2.065,0-3.739,1.674-3.739,3.739c0,2.065,1.674,3.739,3.739,3.739
					c2.065,0,3.739-1.674,3.739-3.739C500.865,185.621,499.191,183.947,497.126,183.947z"/>
				<path style="fill:#FFFFFF;" d="M512.155,183.947c-2.065,0-3.739,1.674-3.739,3.739c0,2.065,1.674,3.739,3.739,3.739
					c2.065,0,3.739-1.674,3.739-3.739C515.894,185.621,514.22,183.947,512.155,183.947z"/>
			</g>
			<g>
				<path style="fill:#FFFFFF;" d="M88.999,173.001c-2.065,0-3.739,1.674-3.739,3.739c0,2.065,1.674,3.739,3.739,3.739
					c2.065,0,3.739-1.674,3.739-3.739C92.738,174.676,91.064,173.001,88.999,173.001z"/>
				<path style="fill:#FFFFFF;" d="M103.661,173.001c-2.065,0-3.739,1.674-3.739,3.739c0,2.065,1.674,3.739,3.739,3.739
					s3.739-1.674,3.739-3.739C107.4,174.676,105.726,173.001,103.661,173.001z"/>
				<path style="fill:#FFFFFF;" d="M118.69,173.001c-2.065,0-3.739,1.674-3.739,3.739c0,2.065,1.674,3.739,3.739,3.739
					c2.065,0,3.739-1.674,3.739-3.739C122.429,174.676,120.755,173.001,118.69,173.001z"/>
			</g>
		</g>
	</g>
</g>
</svg>
